<svg width="20" height="20" viewBox="0 0 20 20" fill="none" xmlns="http://www.w3.org/2000/svg">
<path d="M11.8741 13.75C12.9866 13.75 14.0741 13.4201 14.9991 12.802C15.9242 12.1839 16.6451 11.3054 17.0709 10.2776C17.4966 9.24976 17.608 8.11876 17.391 7.02762C17.1739 5.93647 16.6382 4.93419 15.8515 4.14752C15.0649 3.36085 14.0626 2.82512 12.9714 2.60808C11.8803 2.39104 10.7493 2.50243 9.72146 2.92818C8.69363 3.35392 7.81513 4.07489 7.19704 4.99992C6.57896 5.92494 6.24906 7.01248 6.24906 8.125C6.24906 9.61684 6.84169 11.0476 7.89658 12.1025C8.95148 13.1574 10.3822 13.75 11.8741 13.75V13.75ZM11.8741 0C13.157 0.000270944 14.4216 0.30433 15.5644 0.887292C16.7072 1.47025 17.6957 2.31555 18.449 3.35398C19.2024 4.39242 19.6991 5.59449 19.8985 6.8618C20.098 8.12911 19.9945 9.42564 19.5966 10.6453C19.1986 11.8649 18.5175 12.973 17.609 13.8788C16.7005 14.7846 15.5905 15.4624 14.3697 15.8567C13.1488 16.251 11.852 16.3506 10.5853 16.1474C9.31859 15.9442 8.11801 15.4439 7.08181 14.6875L2.13293 19.6339C1.89816 19.8666 1.58076 19.9968 1.25019 19.9961C0.919621 19.9954 0.602796 19.8638 0.369046 19.63C0.135296 19.3963 0.00365656 19.0794 0.00293269 18.7489C0.00220882 18.4183 0.13246 18.1009 0.365184 17.8661L5.31218 12.9173C4.42757 11.7057 3.89561 10.2729 3.77524 8.77764C3.65486 7.28236 3.95078 5.78293 4.63019 4.44548C5.30961 3.10804 6.346 1.98477 7.62456 1.20013C8.90312 0.415495 10.3739 0.000111236 11.8741 0V0Z" fill="#799189"/>
</svg>
