<svg width="292" height="80" viewBox="0 0 146 40" fill="none" xmlns="http://www.w3.org/2000/svg">
<g clip-path="url(#clip0)">
<path d="M143.5 23.1C143.5 22 142.8 21.4 141.9 21.4C140.9 21.4 140.2 22.1 140 23.1H143.5ZM142 20C144.2 20 145.4 21.5 145.4 23.6C145.4 23.9 145.1 24.2 144.7 24.2H140C140.1 25.6 141.2 26.3 142.3 26.3C143 26.3 143.6 26 144 25.8C144.4 25.6 144.7 25.7 144.9 26L145.1 26.3C145.3 26.6 145.2 26.9 144.9 27.1C144.4 27.4 143.5 27.9 142.3 27.9C139.7 27.9 138.1 26.1 138.1 23.9C138.1 21.6 139.7 20 142 20ZM133.2 26.4C134.2 26.4 135.1 25.7 135.1 24C135.1 22.8 134.5 21.7 133.2 21.7C132.1 21.7 131.3 22.5 131.3 24.1C131.3 25.4 132.1 26.4 133.2 26.4ZM132.8 20C134.5 20 135.1 21.1 135.1 21.1C135.1 21.1 135.1 20.9 135.1 20.7V17.9C135.1 17.5 135.3 17.3 135.7 17.3H136.4C136.8 17.3 137 17.5 137 17.9V27.2C137 27.6 136.8 27.8 136.4 27.8H135.8C135.4 27.8 135.2 27.6 135.2 27.2V26.9C135.2 26.8 135.2 26.6 135.2 26.6C135.2 26.6 134.5 27.9 132.8 27.9C130.7 27.9 129.3 26.3 129.3 23.9C129.3 21.6 130.8 20 132.8 20ZM126.5 26.5C126.5 26.1 126.7 25.9 127.1 25.9H127.8C128.2 25.9 128.4 26.1 128.4 26.5V27.2C128.4 27.6 128.2 27.8 127.8 27.8H127.1C126.7 27.8 126.5 27.6 126.5 27.2V26.5V26.5ZM33.1 29.2L30.7 30.6V23.9C30.7 23.4 30.4 23 30 22.7C29.6 22.5 29 22.5 28.6 22.7L24.2 25.2C23.3 25.7 22.8 26.6 22.8 27.6V35.2L19.3 37.3V21.1L33.9 12.6V27.8C33.8 28.4 33.5 28.9 33.1 29.2ZM13.4 35.1V27.5C13.4 26.5 12.9 25.6 12 25.1L7.6 22.6C7.2 22.4 6.6 22.4 6.2 22.6C5.8 22.8 5.5 23.3 5.5 23.8V30.5L3.1 29.1C2.6 28.8 2.3 28.3 2.3 27.7V12.6L16.9 21.1V37.2L13.4 35.1ZM16.9 2.80001V18.3L3.5 10.6L16.9 2.80001ZM32.7 10.6L19.3 18.4V2.80001L32.7 10.6ZM34.2 8.80001L20.1 0.500006C18.9 -0.199994 17.4 -0.199994 16.1 0.500006L2 8.80001C0.8 9.50001 0 10.8 0 12.2V27.9C0 29.3 0.8 30.6 2 31.3L7.9 34.7V25.6L10.9 27.3C11 27.4 11.1 27.5 11.1 27.6V36.5L16.2 39.5C16.8 39.9 17.5 40 18.2 40C18.9 40 19.6 39.8 20.2 39.5L25.3 36.5V27.6C25.3 27.5 25.4 27.3 25.5 27.3L28.5 25.6V34.7L34.4 31.3C35.6 30.6 36.4 29.3 36.4 27.9V12.2C36.2 10.8 35.4 9.50001 34.2 8.80001ZM114.5 18.1C114.5 17.5 114.8 17.2 115.4 17.2H116.2C116.8 17.2 117.1 17.5 117.1 18.1V18.7C117.1 18.9 117.1 19.2 117.1 19.2C117.6 18.3 118.7 17 120.9 17C123.3 17 124.6 18.2 124.6 21V26.9C124.6 27.5 124.3 27.8 123.7 27.8H122.8C122.2 27.8 121.9 27.5 121.9 26.9V21.5C121.9 20.2 121.6 19.4 120.2 19.4C118.3 19.4 117.1 20.9 117.1 22.8V26.9C117.1 27.5 116.8 27.8 116.2 27.8H115.3C114.7 27.8 114.4 27.5 114.4 26.9V18.1H114.5ZM107.4 26C108.9 26 109.9 24.5 109.9 23.2V22.8H109.5C108.2 22.8 105.9 23 105.9 24.6C105.8 25.3 106.4 26 107.4 26ZM109.4 21.3H109.8V21C109.8 19.6 108.9 19.1 107.8 19.1C106.9 19.1 106.1 19.4 105.6 19.7C105.1 19.9 104.7 19.8 104.4 19.4L104.2 19C103.9 18.5 104 18.1 104.5 17.8C105.2 17.5 106.4 16.9 108 16.9C110.8 16.9 112.4 18.4 112.4 21.1V26.8C112.4 27.4 112.1 27.7 111.5 27.7H110.8C110.2 27.7 109.9 27.4 109.9 26.8V26.4C109.9 26.1 109.9 25.9 109.9 25.9C109.9 25.9 108.9 27.9 106.5 27.9C104.5 27.9 102.9 26.7 102.9 24.7C103.2 21.8 107 21.3 109.4 21.3ZM91.9 18.1C91.9 17.5 92.2 17.2 92.8 17.2H93.6C94.2 17.2 94.5 17.5 94.5 18.1V18.7C94.5 18.9 94.5 19.2 94.5 19.2C95 18.3 96.1 17 98.3 17C100.7 17 102 18.2 102 21V26.9C102 27.5 101.7 27.8 101.1 27.8H100.2C99.6 27.8 99.3 27.5 99.3 26.9V21.5C99.3 20.2 99 19.4 97.6 19.4C95.7 19.4 94.5 20.9 94.5 22.8V26.9C94.5 27.5 94.2 27.8 93.6 27.8H92.7C92.1 27.8 91.8 27.5 91.8 26.9V18.1H91.9ZM87.9 21.3C87.9 19.8 87 19 85.7 19C84.3 19 83.4 19.9 83.1 21.3H87.9ZM85.8 17C88.8 17 90.6 19.1 90.6 22C90.6 22.5 90.2 22.9 89.7 22.9H83C83.2 24.8 84.6 25.8 86.2 25.8C87.2 25.8 88 25.4 88.5 25.1C89 24.9 89.4 24.9 89.7 25.4L90 25.8C90.3 26.3 90.2 26.7 89.7 27C89 27.4 87.7 28.1 86.1 28.1C82.5 28.1 80.3 25.6 80.3 22.6C80.3 19.3 82.5 17 85.8 17ZM74 25.8C75.5 25.8 76.7 24.6 76.7 22.5C76.7 20.5 75.6 19.2 74 19.2C72.6 19.2 71.3 20.2 71.3 22.5C71.4 24.2 72.3 25.8 74 25.8ZM68.8 14C68.8 13.4 69.1 13.1 69.7 13.1H70.6C71.2 13.1 71.5 13.4 71.5 14V17.8C71.5 18.3 71.4 18.7 71.4 18.7C71.4 18.7 72.3 17 74.7 17C77.5 17 79.4 19.2 79.4 22.5C79.4 25.9 77.3 28 74.5 28C72.1 28 71.2 26.2 71.2 26.2C71.2 26.2 71.2 26.4 71.2 26.7V27C71.2 27.5 70.9 27.7 70.3 27.7H69.6C69 27.7 68.7 27.4 68.7 26.8V14H68.8ZM64.7 21.3C64.7 19.8 63.8 19 62.5 19C61.1 19 60.2 19.9 59.9 21.3H64.7ZM62.6 17C65.6 17 67.4 19.1 67.4 22C67.4 22.5 67 22.9 66.5 22.9H60C60.2 24.8 61.6 25.8 63.2 25.8C64.2 25.8 65 25.4 65.5 25.1C66 24.9 66.4 24.9 66.7 25.4L67 25.8C67.3 26.3 67.2 26.7 66.7 27C66 27.4 64.7 28.1 63.1 28.1C59.5 28.1 57.3 25.6 57.3 22.6C57.2 19.3 59.4 17 62.6 17ZM45.8 18.1C45.8 17.5 46.1 17.2 46.7 17.2H47.5C48.1 17.2 48.4 17.5 48.4 18.1V18.7C48.4 18.9 48.4 19.2 48.4 19.2C48.9 18.3 50 17 52.2 17C54.6 17 55.9 18.2 55.9 21V26.9C55.9 27.5 55.6 27.8 55 27.8H54.1C53.5 27.8 53.2 27.5 53.2 26.9V21.5C53.2 20.2 52.9 19.4 51.5 19.4C49.6 19.4 48.4 20.9 48.4 22.8V26.9C48.4 27.5 48.1 27.8 47.5 27.8H46.6C46 27.8 45.7 27.5 45.7 26.9V18.1H45.8Z" fill="#fff"/>
</g>
<defs>
<clipPath id="clip0">
<rect width="145.5" height="40" fill="white"/>
</clipPath>
</defs>
</svg>
